# xmcd
#
# Track frame offsets:
#	150
#	14662
#	33499
#	52710
#	73585
#	91916
#	109073
#	127858
#	149930
#	168067
#	191417
#
# Disc length: 2805 seconds
#
# Revision: 0
# Processed by: cddbd v1.4PL0 Copyright (c) Steve Scherf et al.
# Submitted via: dBpowerAMP V4.0
#
DISCID=900af30b
DTITLE=Francesco Di Vicino - Il Bianco and il Nero
DYEAR=2003
DGENRE=Blues
TTITLE0=Viole
TTITLE1=Alberi di pace
TTITLE2=Sopra di noi
TTITLE3=Aspettando Te
TTITLE4=Amica
TTITLE5=S.O.S.
TTITLE6=Maschere
TTITLE7=I colori del cielo
TTITLE8=Il bianco and il nero
TTITLE9=Massimo
TTITLE10=Per noi il cielo
EXTD=
EXTT0=
EXTT1=
EXTT2=
EXTT3=
EXTT4=
EXTT5=
EXTT6=
EXTT7=
EXTT8=
EXTT9=
EXTT10=
PLAYORDER=
